<?xml version="1.0" standalone="no"?>
<!DOCTYPE svg PUBLIC "-//W3C//DTD SVG 20010904//EN"
 "http://www.w3.org/TR/2001/REC-SVG-20010904/DTD/svg10.dtd">
<svg version="1.0" xmlns="http://www.w3.org/2000/svg"
 width="64.000000pt" height="64.000000pt" viewBox="0 0 64.000000 64.000000"
 preserveAspectRatio="xMidYMid meet">

<g transform="translate(0.000000,64.000000) scale(0.100000,-0.100000)"
fill="#000000" stroke="none">
<path d="M210 607 c0 -23 -42 -54 -98 -72 -84 -27 -92 -47 -92 -234 0 -151 1
-156 26 -193 15 -21 31 -38 35 -38 14 0 10 10 -16 42 -24 29 -25 34 -25 187 0
184 3 191 86 218 34 10 65 28 80 46 25 29 32 57 14 57 -5 0 -10 -6 -10 -13z"/>
<path d="M380 606 c0 -29 43 -66 101 -87 33 -12 67 -31 74 -43 12 -16 15 -57
16 -176 0 -154 11 -219 36 -228 10 -3 9 7 -2 38 -11 31 -15 86 -15 194 0 184
-8 204 -92 231 -56 18 -98 49 -98 72 0 7 -4 13 -10 13 -5 0 -10 -6 -10 -14z"/>
<path d="M288 448 c-3 -24 1 -89 9 -145 9 -71 11 -119 4 -160 -9 -59 -6 -78 8
-54 18 29 20 120 5 211 -9 54 -13 116 -9 143 3 26 2 47 -4 47 -5 0 -11 -19
-13 -42z"/>
<path d="M120 284 c0 -58 4 -114 10 -124 7 -13 5 -31 -5 -60 -17 -49 -19 -80
-5 -80 6 0 10 8 10 18 0 9 14 54 30 100 l29 83 -25 81 c-13 45 -24 83 -24 85
0 2 -4 3 -10 3 -6 0 -10 -42 -10 -106z m43 -83 c-11 -42 -23 -19 -22 42 l1 62
13 -42 c7 -23 11 -51 8 -62z"/>
<path d="M240 371 c0 -10 -10 -30 -21 -45 -26 -33 -20 -43 10 -19 23 20 41 83
22 83 -6 0 -11 -8 -11 -19z"/>
<path d="M334 358 c3 -18 16 -41 27 -51 30 -24 36 -14 10 19 -11 15 -21 35
-21 45 0 11 -5 19 -11 19 -8 0 -9 -11 -5 -32z"/>
<path d="M456 332 c-9 -32 -16 -74 -16 -93 0 -45 42 -219 54 -219 8 0 2 61
-10 97 -6 16 -5 16 10 -2 17 -20 17 -20 11 5 -4 14 -10 80 -12 148 -3 67 -9
122 -13 122 -4 0 -15 -26 -24 -58z m11 -129 c-2 -16 -4 -3 -4 27 0 30 2 43 4
28 2 -16 2 -40 0 -55z"/>
<path d="M260 230 c0 -5 5 -10 10 -10 6 0 10 5 10 10 0 6 -4 10 -10 10 -5 0
-10 -4 -10 -10z"/>
<path d="M350 230 c0 -5 5 -10 10 -10 6 0 10 5 10 10 0 6 -4 10 -10 10 -5 0
-10 -4 -10 -10z"/>
<path d="M260 190 c0 -5 5 -10 10 -10 6 0 10 5 10 10 0 6 -4 10 -10 10 -5 0
-10 -4 -10 -10z"/>
<path d="M350 190 c0 -5 5 -10 10 -10 6 0 10 5 10 10 0 6 -4 10 -10 10 -5 0
-10 -4 -10 -10z"/>
<path d="M260 150 c0 -5 5 -10 10 -10 6 0 10 5 10 10 0 6 -4 10 -10 10 -5 0
-10 -4 -10 -10z"/>
<path d="M350 150 c0 -5 5 -10 10 -10 6 0 10 5 10 10 0 6 -4 10 -10 10 -5 0
-10 -4 -10 -10z"/>
<path d="M250 110 c0 -5 5 -10 10 -10 6 0 10 5 10 10 0 6 -4 10 -10 10 -5 0
-10 -4 -10 -10z"/>
<path d="M340 110 c0 -5 5 -10 10 -10 6 0 10 5 10 10 0 6 -4 10 -10 10 -5 0
-10 -4 -10 -10z"/>
</g>
</svg>
