<?xml version="1.0" standalone="no"?>
<!DOCTYPE svg PUBLIC "-//W3C//DTD SVG 20010904//EN"
 "http://www.w3.org/TR/2001/REC-SVG-20010904/DTD/svg10.dtd">
<svg version="1.0" xmlns="http://www.w3.org/2000/svg"
 width="64.000000pt" height="64.000000pt" viewBox="0 0 64.000000 64.000000"
 preserveAspectRatio="xMidYMid meet">

<g transform="translate(0.000000,64.000000) scale(0.100000,-0.100000)"
fill="#000000" stroke="none">
<path d="M425 603 c12 -32 10 -35 -30 -47 -66 -21 -100 -43 -148 -96 l-45 -50
-70 55 c-39 30 -73 55 -76 55 -33 0 103 -110 210 -170 32 -18 60 -34 62 -36 2
-1 -12 -26 -31 -55 -33 -53 -79 -157 -92 -211 -11 -44 13 -33 25 11 l10 39 38
-13 c20 -7 59 -16 85 -20 41 -6 47 -10 42 -26 -4 -11 -3 -19 2 -19 10 0 158
233 172 273 26 69 9 122 -81 243 -58 79 -89 107 -73 67z m69 -101 c25 -37 26
-40 11 -75 -19 -47 -19 -106 1 -156 l15 -39 -46 -74 -45 -74 -63 7 c-34 4 -74
12 -90 18 l-27 11 34 67 c19 38 44 82 55 98 12 17 21 33 21 36 0 3 -29 21 -65
39 -36 18 -65 37 -65 41 0 5 17 27 37 50 49 54 112 86 174 88 20 1 33 -9 53
-37z m65 -99 c15 -51 14 -67 -5 -111 l-16 -37 -14 30 c-16 37 -17 82 -3 124
14 41 26 39 38 -6z"/>
</g>
</svg>
