<?xml version="1.0" standalone="no"?>
<!DOCTYPE svg PUBLIC "-//W3C//DTD SVG 20010904//EN"
 "http://www.w3.org/TR/2001/REC-SVG-20010904/DTD/svg10.dtd">
<svg version="1.0" xmlns="http://www.w3.org/2000/svg"
 width="50.000000pt" height="50.000000pt" viewBox="0 0 50.000000 50.000000"
 preserveAspectRatio="xMidYMid meet">

<g transform="translate(0.000000,50.000000) scale(0.100000,-0.100000)"
fill="#000000" stroke="none">
<path d="M247 472 c-33 -36 -8 -92 40 -92 25 0 53 30 53 57 0 46 -62 69 -93
35z m67 -24 c8 -14 7 -21 -6 -34 -30 -30 -75 9 -48 42 16 18 39 15 54 -8z"/>
<path d="M215 353 c-14 -13 -16 -27 -10 -72 3 -31 9 -66 12 -78 6 -26 23 -31
23 -8 0 13 7 11 39 -7 32 -18 38 -26 30 -40 -5 -9 -9 -19 -9 -21 0 -3 41 -8
90 -12 50 -4 90 -11 90 -16 0 -5 -40 -9 -89 -9 -80 0 -89 2 -94 20 -4 17 -14
20 -66 20 -34 0 -61 -4 -61 -10 0 -5 25 -10 55 -10 30 0 55 -4 55 -10 0 -6
-30 -10 -70 -10 -54 0 -72 4 -76 15 -12 29 16 45 77 45 32 0 61 5 64 11 10 15
6 16 -73 10 -48 -4 -76 -11 -82 -21 -8 -13 -10 -13 -10 1 0 22 -32 49 -57 49
-35 0 -50 -30 -51 -97 0 -35 4 -63 9 -63 5 0 9 11 9 25 0 22 4 25 34 25 19 0
38 -4 41 -10 4 -6 80 -10 196 -10 161 0 189 -2 189 -15 0 -8 5 -15 11 -15 6 0
9 17 7 42 l-3 43 -82 9 c-59 6 -83 13 -83 22 0 8 -1 17 -2 20 -2 4 26 7 62 8
62 1 65 2 65 26 0 24 -2 25 -83 28 -81 3 -84 4 -100 32 -18 31 -39 42 -28 14
3 -9 6 -20 6 -24 0 -5 17 -21 37 -35 42 -28 27 -35 -18 -8 -20 12 -33 31 -40
56 -17 63 -11 72 52 75 l55 3 35 -51 c19 -27 40 -50 47 -50 13 0 -49 96 -73
112 -20 15 -113 9 -130 -9z m225 -142 c0 -15 -99 -18 -105 -3 -3 9 11 12 50
12 30 0 55 -4 55 -9z m-356 -53 c8 -14 7 -21 -6 -34 -30 -30 -75 9 -48 42 16
18 39 15 54 -8z m30 -54 c3 -8 2 -12 -4 -9 -6 3 -10 10 -10 16 0 14 7 11 14
-7z"/>
<path d="M330 281 c0 -24 4 -28 25 -28 30 0 30 0 9 32 -22 33 -34 32 -34 -4z"/>
</g>
</svg>
